<mxfile host="app.diagrams.net" agent="Mozilla/5.0 (Macintosh; Intel Mac OS X 10_15_7) AppleWebKit/537.36 (KHTML, like Gecko) Chrome/138.0.0.0 Safari/537.36" version="28.0.7">
  <diagram name="Page-1" id="BwtNQaPPfuIoeqnthCHS">
    <mxGraphModel dx="1410" dy="681" grid="1" gridSize="10" guides="1" tooltips="1" connect="1" arrows="1" fold="1" page="1" pageScale="1" pageWidth="850" pageHeight="1100" math="0" shadow="0">
      <root>
        <mxCell id="0" />
        <mxCell id="1" parent="0" />
        <mxCell id="h9kNk-p-MHQO0SrDAhjG-1" value="main.js" style="rounded=0;whiteSpace=wrap;html=1;" vertex="1" parent="1">
          <mxGeometry x="90" y="260" width="120" height="60" as="geometry" />
        </mxCell>
        <mxCell id="h9kNk-p-MHQO0SrDAhjG-2" value="database.js" style="rounded=0;whiteSpace=wrap;html=1;" vertex="1" parent="1">
          <mxGeometry x="680" y="260" width="120" height="60" as="geometry" />
        </mxCell>
        <mxCell id="h9kNk-p-MHQO0SrDAhjG-7" style="edgeStyle=orthogonalEdgeStyle;rounded=0;orthogonalLoop=1;jettySize=auto;html=1;entryX=0.5;entryY=0;entryDx=0;entryDy=0;startArrow=classicThin;startFill=1;endArrow=none;endFill=0;" edge="1" parent="1" source="h9kNk-p-MHQO0SrDAhjG-3" target="h9kNk-p-MHQO0SrDAhjG-2">
          <mxGeometry relative="1" as="geometry" />
        </mxCell>
        <mxCell id="h9kNk-p-MHQO0SrDAhjG-14" style="edgeStyle=orthogonalEdgeStyle;rounded=0;orthogonalLoop=1;jettySize=auto;html=1;" edge="1" parent="1" source="h9kNk-p-MHQO0SrDAhjG-3" target="h9kNk-p-MHQO0SrDAhjG-1">
          <mxGeometry relative="1" as="geometry" />
        </mxCell>
        <mxCell id="h9kNk-p-MHQO0SrDAhjG-3" value="guests.js" style="rounded=0;whiteSpace=wrap;html=1;" vertex="1" parent="1">
          <mxGeometry x="380" y="90" width="120" height="60" as="geometry" />
        </mxCell>
        <mxCell id="h9kNk-p-MHQO0SrDAhjG-8" style="edgeStyle=orthogonalEdgeStyle;rounded=0;orthogonalLoop=1;jettySize=auto;html=1;entryX=0;entryY=0.25;entryDx=0;entryDy=0;startArrow=classicThin;startFill=1;endArrow=none;endFill=0;" edge="1" parent="1" source="h9kNk-p-MHQO0SrDAhjG-4" target="h9kNk-p-MHQO0SrDAhjG-2">
          <mxGeometry relative="1" as="geometry" />
        </mxCell>
        <mxCell id="h9kNk-p-MHQO0SrDAhjG-11" style="edgeStyle=orthogonalEdgeStyle;rounded=0;orthogonalLoop=1;jettySize=auto;html=1;entryX=1;entryY=0.25;entryDx=0;entryDy=0;" edge="1" parent="1" source="h9kNk-p-MHQO0SrDAhjG-4" target="h9kNk-p-MHQO0SrDAhjG-1">
          <mxGeometry relative="1" as="geometry" />
        </mxCell>
        <mxCell id="h9kNk-p-MHQO0SrDAhjG-4" value="park-areas.js" style="rounded=0;whiteSpace=wrap;html=1;" vertex="1" parent="1">
          <mxGeometry x="380" y="245" width="120" height="60" as="geometry" />
        </mxCell>
        <mxCell id="h9kNk-p-MHQO0SrDAhjG-9" style="edgeStyle=orthogonalEdgeStyle;rounded=0;orthogonalLoop=1;jettySize=auto;html=1;entryX=0.5;entryY=1;entryDx=0;entryDy=0;startArrow=classicThin;startFill=1;endArrow=none;endFill=0;flowAnimation=0;" edge="1" parent="1" source="h9kNk-p-MHQO0SrDAhjG-5" target="h9kNk-p-MHQO0SrDAhjG-2">
          <mxGeometry relative="1" as="geometry" />
        </mxCell>
        <mxCell id="h9kNk-p-MHQO0SrDAhjG-15" style="edgeStyle=orthogonalEdgeStyle;rounded=0;orthogonalLoop=1;jettySize=auto;html=1;entryX=0.5;entryY=1;entryDx=0;entryDy=0;startArrow=none;startFill=0;" edge="1" parent="1" source="h9kNk-p-MHQO0SrDAhjG-5" target="h9kNk-p-MHQO0SrDAhjG-4">
          <mxGeometry relative="1" as="geometry" />
        </mxCell>
        <mxCell id="h9kNk-p-MHQO0SrDAhjG-5" value="services.js" style="rounded=0;whiteSpace=wrap;html=1;" vertex="1" parent="1">
          <mxGeometry x="380" y="390" width="120" height="60" as="geometry" />
        </mxCell>
        <mxCell id="h9kNk-p-MHQO0SrDAhjG-13" style="edgeStyle=orthogonalEdgeStyle;rounded=0;orthogonalLoop=1;jettySize=auto;html=1;entryX=0.5;entryY=1;entryDx=0;entryDy=0;" edge="1" parent="1" source="h9kNk-p-MHQO0SrDAhjG-6" target="h9kNk-p-MHQO0SrDAhjG-1">
          <mxGeometry relative="1" as="geometry" />
        </mxCell>
        <mxCell id="h9kNk-p-MHQO0SrDAhjG-6" value="contact.js" style="rounded=0;whiteSpace=wrap;html=1;" vertex="1" parent="1">
          <mxGeometry x="380" y="530" width="120" height="60" as="geometry" />
        </mxCell>
      </root>
    </mxGraphModel>
  </diagram>
</mxfile>
